<?xml version="1.0" encoding="UTF-8" standalone="no"?>
<!-- Created with Inkscape (http://www.inkscape.org/) -->

<svg
   xmlns:dc="http://purl.org/dc/elements/1.1/"
   xmlns:cc="http://creativecommons.org/ns#"
   xmlns:rdf="http://www.w3.org/1999/02/22-rdf-syntax-ns#"
   xmlns:svg="http://www.w3.org/2000/svg"
   xmlns="http://www.w3.org/2000/svg"
   xmlns:sodipodi="http://sodipodi.sourceforge.net/DTD/sodipodi-0.dtd"
   xmlns:inkscape="http://www.inkscape.org/namespaces/inkscape"
   width="71.591835mm"
   height="7.7941837mm"
   viewBox="0 0 253.67185 27.617186"
   id="svg2"
   version="1.1"
   inkscape:version="0.91 r13725"
   sodipodi:docname="numbers.svg">
  <defs
     id="defs4" />
  <sodipodi:namedview
     id="base"
     pagecolor="#ffffff"
     bordercolor="#666666"
     borderopacity="1.0"
     inkscape:pageopacity="0.0"
     inkscape:pageshadow="2"
     inkscape:zoom="2.8"
     inkscape:cx="107.5061"
     inkscape:cy="-2.2849557"
     inkscape:document-units="px"
     inkscape:current-layer="text4136"
     showgrid="false"
     inkscape:window-width="1492"
     inkscape:window-height="701"
     inkscape:window-x="2050"
     inkscape:window-y="285"
     inkscape:window-maximized="0"
     fit-margin-top="0"
     fit-margin-left="0"
     fit-margin-right="0"
     fit-margin-bottom="0" />
  <metadata
     id="metadata7">
    <rdf:RDF>
      <cc:Work
         rdf:about="">
        <dc:format>image/svg+xml</dc:format>
        <dc:type
           rdf:resource="http://purl.org/dc/dcmitype/StillImage" />
        <dc:title></dc:title>
      </cc:Work>
    </rdf:RDF>
  </metadata>
  <g
     inkscape:label="Ebene 1"
     inkscape:groupmode="layer"
     id="layer1"
     transform="translate(427.51687,-234.44091)">
    <g
       style="font-style:normal;font-weight:normal;font-size:40px;line-height:125%;font-family:sans-serif;letter-spacing:0px;word-spacing:0px;fill:#000000;fill-opacity:1;stroke:none;stroke-width:1px;stroke-linecap:butt;stroke-linejoin:miter;stroke-opacity:1"
       id="text4136"
       transform="matrix(24.055013,0,0,24.055013,-4691.6095,-7563.6435)">
      <g
         style="font-style:normal;font-variant:normal;font-weight:normal;font-stretch:normal;font-size:1.66285503px;line-height:125%;font-family:FrankRuehl;-inkscape-font-specification:'FrankRuehl, Normal';text-align:start;letter-spacing:0px;word-spacing:0px;writing-mode:lr-tb;text-anchor:start;fill:#000000;fill-opacity:1;stroke:none;stroke-width:1px;stroke-linecap:butt;stroke-linejoin:miter;stroke-opacity:1"
         id="text4173">
        <path
           d="m 178.11268,325.30814 -0.84848,0 0,-0.1632 0.33371,0 0,-0.6999 q -0.16645,0.14534 -0.30286,0.19974 l 0,-0.19974 q 0.13885,-0.0528 0.17376,-0.0747 0.0349,-0.0227 0.1023,-0.0828 0.0674,-0.0609 0.095,-0.11043 l 0.13316,0 0,0.96784 0.31341,0 0,0.1632 z"
           style="font-style:normal;font-variant:normal;font-weight:normal;font-stretch:normal;font-size:1.66285503px;line-height:125%;font-family:'Franklin Gothic Medium';-inkscape-font-specification:'Franklin Gothic Medium, Normal';text-align:start;writing-mode:lr-tb;text-anchor:start;fill:#0000ff"
           id="path5985" />
        <path
           d="m 179.42721,325.13519 0,0.17295 -0.81681,0 0,-0.19406 0.33939,-0.22572 q 0.15833,-0.10555 0.21273,-0.18674 0.0544,-0.082 0.0544,-0.15021 0,-0.082 -0.0544,-0.13803 -0.0544,-0.056 -0.14128,-0.056 -0.18999,0 -0.21841,0.23141 l -0.19243,-0.0479 q 0.0219,-0.14777 0.13072,-0.25251 0.10961,-0.10555 0.28662,-0.10555 0.18349,0 0.29311,0.10474 0.10961,0.10392 0.10961,0.26469 0,0.14209 -0.0974,0.25414 -0.0974,0.11123 -0.48311,0.32883 l 0.57729,0 z"
           style="font-style:normal;font-variant:normal;font-weight:normal;font-stretch:normal;font-size:1.66285503px;line-height:125%;font-family:'Franklin Gothic Medium';-inkscape-font-specification:'Franklin Gothic Medium, Normal';text-align:start;writing-mode:lr-tb;text-anchor:start;fill:#008000"
           id="path5987" />
        <path
           d="m 180.28056,324.81854 0,-0.15752 0.10149,0 q 0.0909,0 0.15184,-0.0406 0.0609,-0.0406 0.0609,-0.12098 0,-0.0788 -0.052,-0.11854 -0.0512,-0.0398 -0.13235,-0.0398 -0.16401,0 -0.22328,0.16077 l -0.18269,-0.0317 q 0.0308,-0.12666 0.14209,-0.20704 0.11205,-0.0804 0.26956,-0.0804 0.15671,0 0.26713,0.0812 0.11124,0.0804 0.11124,0.21598 0,0.10068 -0.0601,0.17213 -0.0593,0.0715 -0.14697,0.0779 0.1088,0.0162 0.17457,0.0901 0.0666,0.0739 0.0666,0.17781 0,0.14291 -0.1153,0.23547 -0.11448,0.0918 -0.30528,0.0918 -0.1762,0 -0.29149,-0.0893 -0.11449,-0.0901 -0.14453,-0.20623 l 0.18918,-0.0463 q 0.0568,0.18512 0.24521,0.18512 0.0974,0 0.15671,-0.0495 0.0601,-0.0503 0.0601,-0.12098 0,-0.0715 -0.052,-0.12503 -0.0512,-0.0544 -0.15509,-0.0544 l -0.13559,0 z"
           style="font-style:normal;font-variant:normal;font-weight:normal;font-stretch:normal;font-size:1.66285503px;line-height:125%;font-family:'Franklin Gothic Medium';-inkscape-font-specification:'Franklin Gothic Medium, Normal';text-align:start;writing-mode:lr-tb;text-anchor:start;fill:#ff0000"
           id="path5989" />
        <path
           d="m 182.07414,325.30814 -0.20542,0 0,-0.25171 -0.49204,0 0,-0.14615 0.49204,-0.73318 0.20542,0 0,0.70883 0.16645,0 0,0.1705 -0.16645,0 0,0.25171 z m -0.19081,-0.92237 -0.31422,0.50016 0.29961,0 0,-0.30611 q 0,-0.0487 0.005,-0.0877 l 0.01,-0.10637 z"
           style="font-style:normal;font-variant:normal;font-weight:normal;font-stretch:normal;font-size:1.66285503px;line-height:125%;font-family:'Franklin Gothic Medium';-inkscape-font-specification:'Franklin Gothic Medium, Normal';text-align:start;writing-mode:lr-tb;text-anchor:start;fill:#000080"
           id="path5991" />
        <path
           d="m 182.88689,324.19984 0.68934,0 -0.0179,0.17132 -0.52533,0 -0.0308,0.32152 q 0.0999,-0.12747 0.26063,-0.12747 0.15995,0 0.26956,0.11042 0.11043,0.11043 0.11043,0.26226 0,0.15833 -0.1153,0.27281 -0.11529,0.11449 -0.31665,0.11449 -0.15996,0 -0.28012,-0.0739 -0.11936,-0.0739 -0.15509,-0.22978 l 0.19162,-0.0284 q 0.056,0.1697 0.23303,0.1697 0.1088,0 0.16726,-0.0658 0.0593,-0.0658 0.0593,-0.15914 0,-0.0926 -0.0585,-0.15589 -0.0585,-0.0641 -0.15183,-0.0641 -0.14128,0 -0.21435,0.1291 l -0.17863,-0.0349 0.0633,-0.6122 z"
           style="font-style:normal;font-variant:normal;font-weight:normal;font-stretch:normal;font-size:1.66285503px;line-height:125%;font-family:'Franklin Gothic Medium';-inkscape-font-specification:'Franklin Gothic Medium, Normal';text-align:start;writing-mode:lr-tb;text-anchor:start;fill:#501616"
           id="path5993" />
        <path
           d="m 184.98332,324.45235 -0.16888,0.0325 q -0.0471,-0.15589 -0.19487,-0.15589 -0.14128,0 -0.19811,0.1226 -0.056,0.12179 -0.056,0.25738 0,0.0268 8.1e-4,0.0536 0.0828,-0.16645 0.2858,-0.16645 0.15752,0 0.26307,0.0999 0.10555,0.0999 0.10555,0.2517 0,0.16077 -0.11286,0.26957 -0.11286,0.10799 -0.28418,0.10799 -0.21354,0 -0.33614,-0.15021 -0.12179,-0.15102 -0.12179,-0.41328 0,-0.25739 0.11935,-0.41815 0.12017,-0.16076 0.32153,-0.16076 0.30286,0 0.37674,0.26956 z m -0.367,0.72588 q 0.0893,0 0.15021,-0.0536 0.0617,-0.0544 0.0617,-0.16564 0,-0.0755 -0.0585,-0.14128 -0.0576,-0.0658 -0.16076,-0.0658 -0.0942,0 -0.15184,0.0625 -0.0576,0.0625 -0.0576,0.15345 0,0.0917 0.0593,0.15102 0.0593,0.0593 0.15751,0.0593 z"
           style="font-style:normal;font-variant:normal;font-weight:normal;font-stretch:normal;font-size:1.66285503px;line-height:125%;font-family:'Franklin Gothic Medium';-inkscape-font-specification:'Franklin Gothic Medium, Normal';text-align:start;writing-mode:lr-tb;text-anchor:start;fill:#008080"
           id="path5995" />
        <path
           d="m 185.59228,324.19984 0.78677,0 0,0.14127 q -0.20461,0.26551 -0.272,0.46037 -0.0666,0.19487 -0.0804,0.50666 l -0.22816,0 q 0.0284,-0.53832 0.41084,-0.93698 l -0.63412,0 0.017,-0.17132 z"
           style="font-style:normal;font-variant:normal;font-weight:normal;font-stretch:normal;font-size:1.66285503px;line-height:125%;font-family:'Franklin Gothic Medium';-inkscape-font-specification:'Franklin Gothic Medium, Normal';text-align:start;writing-mode:lr-tb;text-anchor:start"
           id="path5997" />
        <path
           d="m 187.16257,324.76089 q -0.19486,-0.0893 -0.19486,-0.26551 0,-0.1364 0.10717,-0.22409 0.10799,-0.0885 0.30123,-0.0885 0.17619,0 0.28256,0.0788 0.10717,0.0788 0.10717,0.20867 0,0.15833 -0.1973,0.24034 0.24115,0.10311 0.24115,0.29148 0,0.13966 -0.12098,0.23141 -0.12017,0.0918 -0.32478,0.0918 -0.21597,0 -0.3264,-0.0845 -0.10961,-0.0853 -0.10961,-0.21354 0,-0.18268 0.23465,-0.26631 z m 0.26794,-0.10799 q 0.15346,-0.0633 0.15346,-0.17619 0,-0.0739 -0.0625,-0.11449 -0.0625,-0.0406 -0.14453,-0.0406 -0.0853,0 -0.14696,0.0365 -0.0609,0.0365 -0.0609,0.10636 0,0.0723 0.0666,0.11042 0.0666,0.0382 0.19486,0.0779 z m -0.13072,0.17376 q -0.0812,0.0292 -0.13072,0.0812 -0.0495,0.0512 -0.0495,0.10961 0,0.0601 0.0617,0.11124 0.0625,0.0512 0.19161,0.0512 0.10718,0 0.16889,-0.0414 0.0625,-0.0422 0.0625,-0.10718 0,-0.056 -0.052,-0.0982 -0.0512,-0.0422 -0.25251,-0.10636 z"
           style="font-style:normal;font-variant:normal;font-weight:normal;font-stretch:normal;font-size:1.66285503px;line-height:125%;font-family:'Franklin Gothic Medium';-inkscape-font-specification:'Franklin Gothic Medium, Normal';text-align:start;writing-mode:lr-tb;text-anchor:start;fill:#666666"
           id="path5999" />
      </g>
    </g>
    <text
       xml:space="preserve"
       style="font-style:normal;font-weight:normal;font-size:40px;line-height:125%;font-family:sans-serif;letter-spacing:0px;word-spacing:0px;fill:#000000;fill-opacity:1;stroke:none;stroke-width:1px;stroke-linecap:butt;stroke-linejoin:miter;stroke-opacity:1"
       x="-298.10828"
       y="369.50488"
       id="text4169"
       sodipodi:linespacing="125%"><tspan
         sodipodi:role="line"
         id="tspan4171"
         x="-298.10828"
         y="369.50488"></tspan></text>
  </g>
</svg>
